<?xml version="1.0" standalone="no"?>
<!DOCTYPE svg PUBLIC "-//W3C//DTD SVG 20010904//EN"
 "http://www.w3.org/TR/2001/REC-SVG-20010904/DTD/svg10.dtd">
<svg version="1.0" xmlns="http://www.w3.org/2000/svg"
 width="133.000000pt" height="133.000000pt" viewBox="0 0 133.000000 133.000000"
 preserveAspectRatio="xMidYMid meet">

<g transform="translate(0.000000,133.000000) scale(0.100000,-0.100000)"
fill="#000000" stroke="none">
<path d="M265 1301 c-56 -4 -102 -12 -121 -23 -44 -24 -91 -81 -104 -125 -8
-26 -10 -186 -8 -504 l3 -465 28 -42 c15 -23 46 -54 69 -69 l42 -28 470 -3
c322 -2 483 0 509 8 47 14 102 62 128 111 18 36 19 63 19 508 0 307 -4 479
-11 498 -16 42 -68 93 -124 119 l-50 24 -380 -2 c-209 -1 -420 -4 -470 -7z
m240 -476 l160 -155 -160 -154 c-88 -86 -163 -155 -166 -156 -4 0 -25 17 -48
38 l-42 37 120 119 120 120 -120 114 -120 115 37 38 c21 22 43 39 49 39 6 0
82 -70 170 -155z m580 -420 l0 -50 -155 0 -155 0 -3 39 c-6 68 -9 67 160 64
l153 -3 0 -50z"/>
</g>
</svg>
